<svg xmlns="http://www.w3.org/2000/svg" xmlns:xlink="http://www.w3.org/1999/xlink" width="1000" zoomAndPan="magnify" viewBox="0 0 750 749.999995" height="1000" preserveAspectRatio="xMidYMid meet" version="1.2"><defs><clipPath id="a14f1be736"><path d="M 6.59375 6.433594 L 743.40625 6.433594 L 743.40625 743.25 L 6.59375 743.25 Z M 6.59375 6.433594 "/></clipPath><clipPath id="124446e63f"><path d="M 375 6.433594 C 171.535156 6.433594 6.59375 171.375 6.59375 374.84375 C 6.59375 578.308594 171.535156 743.25 375 743.25 C 578.464844 743.25 743.40625 578.308594 743.40625 374.84375 C 743.40625 171.375 578.464844 6.433594 375 6.433594 Z M 375 6.433594 "/></clipPath></defs><g id="5c846a0c82"><g clip-rule="nonzero" clip-path="url(#a14f1be736)"><g clip-rule="nonzero" clip-path="url(#124446e63f)"><path style=" stroke:none;fill-rule:nonzero;fill:#ffffff;fill-opacity:1;" d="M 6.59375 6.433594 L 743.40625 6.433594 L 743.40625 743.25 L 6.59375 743.25 Z M 6.59375 6.433594 "/></g></g><path style=" stroke:none;fill-rule:nonzero;fill:#000000;fill-opacity:1;" d="M 625.839844 374.910156 L 625.839844 374.867188 L 625.882812 374.867188 C 612.636719 42.597656 137.613281 42.851562 124.492188 374.867188 L 124.535156 374.867188 L 124.53125 374.910156 L 124.492188 374.910156 C 124.511719 375.464844 124.511719 376.011719 124.492188 376.5625 L 124.53125 376.5625 C 139.601562 706.667969 610.894531 706.414062 625.839844 376.5625 L 625.882812 376.5625 C 625.859375 376.011719 625.859375 375.464844 625.882812 374.910156 Z M 366.230469 609.96875 C 362.496094 609.96875 358.757812 609.878906 355.027344 609.703125 C 351.292969 609.523438 347.566406 609.257812 343.84375 608.902344 C 340.125 608.546875 336.414062 608.101562 332.714844 607.570312 C 329.015625 607.039062 325.332031 606.417969 321.660156 605.710938 C 317.992188 605.003906 314.339844 604.207031 310.707031 603.328125 C 307.074219 602.445312 303.46875 601.480469 299.882812 600.425781 C 296.296875 599.371094 292.738281 598.234375 289.203125 597.011719 C 285.671875 595.789062 282.171875 594.484375 278.703125 593.09375 C 275.234375 591.707031 271.800781 590.234375 268.402344 588.683594 C 265.003906 587.128906 261.640625 585.496094 258.320312 583.785156 C 255 582.070312 251.722656 580.28125 248.484375 578.414062 C 245.25 576.542969 242.058594 574.597656 238.917969 572.578125 C 235.773438 570.558594 232.679688 568.464844 229.636719 566.296875 C 226.59375 564.128906 223.605469 561.890625 220.667969 559.582031 C 217.734375 557.269531 214.851562 554.890625 212.03125 552.445312 C 209.207031 549.996094 206.445312 547.484375 203.742188 544.90625 C 201.039062 542.328125 198.398438 539.6875 195.820312 536.980469 C 193.246094 534.277344 190.734375 531.511719 188.289062 528.6875 C 185.84375 525.867188 183.46875 522.984375 181.160156 520.046875 C 178.851562 517.109375 176.617188 514.121094 174.449219 511.078125 C 172.285156 508.035156 170.195312 504.941406 168.175781 501.796875 C 166.160156 498.65625 164.21875 495.464844 162.351562 492.230469 C 160.488281 488.996094 158.699219 485.714844 156.992188 482.394531 C 155.28125 479.074219 153.652344 475.714844 152.105469 472.320312 C 150.558594 468.921875 149.089844 465.488281 147.703125 462.019531 C 146.320312 458.550781 145.019531 455.054688 143.800781 451.523438 C 142.582031 447.992188 141.449219 444.4375 140.402344 440.851562 C 139.351562 437.269531 138.390625 433.664062 137.515625 430.03125 C 136.636719 426.402344 135.847656 422.753906 135.148438 419.089844 C 134.445312 415.421875 133.832031 411.738281 133.304688 408.042969 C 132.777344 404.347656 132.339844 400.640625 131.988281 396.921875 C 131.640625 393.207031 131.378906 389.480469 131.207031 385.753906 C 131.1875 385.164062 131.230469 384.578125 131.328125 383.996094 C 131.425781 383.414062 131.582031 382.847656 131.792969 382.292969 C 132.003906 381.742188 132.269531 381.21875 132.585938 380.722656 C 132.902344 380.222656 133.265625 379.761719 133.675781 379.332031 C 134.082031 378.90625 134.53125 378.527344 135.015625 378.1875 C 135.5 377.851562 136.015625 377.566406 136.554688 377.332031 C 137.097656 377.09375 137.65625 376.917969 138.234375 376.792969 C 138.8125 376.667969 139.398438 376.605469 139.988281 376.597656 C 139.804688 387.882812 140.558594 399.109375 142.246094 410.273438 L 142.207031 410.277344 C 142.300781 410.75 142.375 411.21875 142.433594 411.695312 L 142.46875 411.691406 L 142.476562 411.726562 L 142.4375 411.734375 C 175.175781 611.167969 453.25 655.605469 568.765625 494.542969 C 566.179688 498.914062 563.453125 503.199219 560.589844 507.398438 C 557.726562 511.59375 554.726562 515.691406 551.597656 519.695312 C 548.46875 523.699219 545.210938 527.59375 541.828125 531.386719 C 538.441406 535.175781 534.941406 538.855469 531.316406 542.417969 C 527.695312 545.984375 523.960938 549.425781 520.113281 552.75 C 516.269531 556.070312 512.320312 559.265625 508.265625 562.332031 C 504.210938 565.398438 500.0625 568.332031 495.820312 571.128906 C 491.574219 573.925781 487.246094 576.582031 482.828125 579.097656 C 478.414062 581.617188 473.917969 583.988281 469.347656 586.214844 C 464.777344 588.4375 460.140625 590.515625 455.4375 592.441406 C 450.730469 594.363281 445.96875 596.136719 441.148438 597.753906 C 436.328125 599.371094 431.460938 600.828125 426.546875 602.128906 C 421.632812 603.429688 416.679688 604.570312 411.691406 605.550781 C 406.703125 606.53125 401.6875 607.351562 396.644531 608.003906 C 391.601562 608.660156 386.542969 609.152344 381.46875 609.480469 C 376.394531 609.808594 371.316406 609.96875 366.230469 609.96875 Z M 177.574219 437.878906 C 180.183594 446.070312 183.550781 453.9375 187.675781 461.476562 L 187.644531 461.492188 C 187.839844 461.804688 188.015625 462.125 188.179688 462.453125 L 188.210938 462.4375 L 188.226562 462.460938 L 188.195312 462.476562 C 263.472656 596.917969 509.78125 556.027344 567.316406 410.011719 C 517.238281 581.585938 241.46875 613.230469 172.410156 446.761719 C 172.273438 446.296875 172.1875 445.828125 172.148438 445.351562 C 172.109375 444.871094 172.117188 444.394531 172.175781 443.917969 C 172.234375 443.441406 172.339844 442.972656 172.492188 442.519531 C 172.644531 442.0625 172.84375 441.628906 173.085938 441.210938 C 173.324219 440.796875 173.605469 440.410156 173.925781 440.050781 C 174.246094 439.695312 174.601562 439.371094 174.984375 439.085938 C 175.371094 438.796875 175.78125 438.554688 176.21875 438.351562 C 176.65625 438.148438 177.105469 437.992188 177.574219 437.878906 Z M 199.863281 456.980469 L 199.921875 456.941406 C 203.675781 464.332031 208.199219 471.21875 213.496094 477.601562 L 213.519531 477.582031 L 213.535156 477.601562 L 213.511719 477.621094 C 213.730469 477.859375 213.9375 478.109375 214.136719 478.367188 L 214.164062 478.351562 C 298.265625 577.925781 515.191406 516.234375 556.167969 384.140625 C 524.066406 536.371094 278.433594 593.632812 196.164062 465.449219 C 195.980469 465.050781 195.839844 464.640625 195.742188 464.214844 C 195.644531 463.789062 195.59375 463.359375 195.589844 462.921875 C 195.585938 462.484375 195.625 462.050781 195.710938 461.625 C 195.800781 461.195312 195.929688 460.78125 196.105469 460.382812 C 196.28125 459.980469 196.496094 459.605469 196.75 459.25 C 197.003906 458.894531 197.292969 458.570312 197.617188 458.277344 C 197.941406 457.984375 198.292969 457.726562 198.671875 457.507812 C 199.050781 457.289062 199.449219 457.113281 199.863281 456.980469 Z M 472.324219 431.925781 C 416.335938 490.5 327.902344 515.910156 271.722656 490.46875 C 269.421875 489.4375 269.546875 486.519531 271.773438 484.195312 C 276.675781 486.941406 281.804688 489.164062 287.160156 490.867188 L 287.144531 490.886719 C 287.386719 490.945312 287.621094 491.019531 287.855469 491.101562 L 287.871094 491.082031 L 287.886719 491.085938 L 287.875 491.105469 C 371.523438 520.84375 530.703125 414.550781 512.105469 311.015625 C 524.269531 345.6875 510.910156 391.554688 472.324219 431.925781 Z M 459.511719 360.875 C 445.664062 410.296875 398.285156 458.019531 352.382812 469.535156 C 350.507812 470.007812 349.480469 468.644531 350.03125 466.679688 C 354.269531 465.902344 358.421875 464.804688 362.488281 463.390625 L 362.488281 463.40625 C 362.664062 463.332031 362.84375 463.269531 363.027344 463.210938 L 363.03125 463.195312 L 363.042969 463.191406 L 363.042969 463.207031 C 419.316406 446.144531 493.96875 338.238281 439.226562 289.917969 C 460.238281 300.609375 469.054688 326.816406 459.511719 360.875 Z M 424.246094 334.003906 C 434.09375 362.019531 421.675781 403.007812 396.449219 427.023438 C 395.414062 428.007812 394.25 427.804688 393.839844 426.695312 C 396.246094 424.644531 398.507812 422.445312 400.632812 420.101562 L 400.636719 420.109375 C 400.722656 420.003906 400.816406 419.902344 400.910156 419.800781 L 400.90625 419.792969 L 400.914062 419.785156 L 400.917969 419.792969 C 431.585938 387.394531 437.191406 310.105469 384.191406 310.234375 C 385.234375 309.980469 386.289062 309.773438 387.355469 309.617188 C 388.421875 309.464844 389.492188 309.363281 390.566406 309.3125 C 391.644531 309.261719 392.71875 309.261719 393.792969 309.316406 C 394.867188 309.371094 395.9375 309.476562 397.003906 309.632812 C 398.066406 309.792969 399.121094 310 400.167969 310.261719 C 401.210938 310.523438 402.242188 310.832031 403.253906 311.191406 C 404.269531 311.550781 405.265625 311.960938 406.238281 312.417969 C 407.214844 312.875 408.164062 313.378906 409.089844 313.925781 C 410.015625 314.476562 410.910156 315.070312 411.777344 315.707031 C 412.648438 316.34375 413.480469 317.019531 414.285156 317.734375 C 415.085938 318.453125 415.851562 319.207031 416.578125 320 C 417.308594 320.792969 417.996094 321.617188 418.644531 322.476562 C 419.292969 323.335938 419.898438 324.222656 420.460938 325.140625 C 421.019531 326.058594 421.535156 327 422.007812 327.964844 C 422.476562 328.933594 422.898438 329.921875 423.273438 330.929688 C 423.644531 331.9375 423.96875 332.964844 424.246094 334.003906 Z M 344.644531 371.660156 C 344.796875 371.671875 344.949219 371.652344 345.09375 371.605469 C 345.242188 371.558594 345.375 371.484375 345.492188 371.386719 C 345.609375 371.285156 345.703125 371.167969 345.773438 371.03125 C 345.847656 370.894531 345.886719 370.75 345.902344 370.597656 C 346.003906 369.601562 346.15625 368.609375 346.355469 367.628906 C 346.554688 366.648438 346.800781 365.675781 347.097656 364.71875 C 347.390625 363.761719 347.730469 362.820312 348.113281 361.894531 C 348.5 360.96875 348.929688 360.066406 349.402344 359.183594 C 349.875 358.300781 350.390625 357.441406 350.945312 356.609375 C 351.503906 355.773438 352.097656 354.96875 352.734375 354.195312 C 353.367188 353.417969 354.039062 352.675781 354.746094 351.964844 C 355.453125 351.253906 356.191406 350.578125 356.964844 349.941406 C 357.738281 349.300781 358.539062 348.703125 359.371094 348.140625 C 360.199219 347.582031 361.058594 347.0625 361.9375 346.582031 C 362.820312 346.105469 363.722656 345.671875 364.644531 345.28125 C 365.570312 344.890625 366.507812 344.542969 367.464844 344.246094 C 368.421875 343.945312 369.394531 343.695312 370.375 343.488281 C 371.355469 343.285156 372.34375 343.125 373.34375 343.015625 C 374.339844 342.90625 375.339844 342.847656 376.34375 342.835938 C 377.34375 342.824219 378.34375 342.859375 379.34375 342.945312 C 380.339844 343.074219 381.328125 343.25 382.308594 343.476562 C 383.285156 343.699219 384.253906 343.96875 385.207031 344.28125 C 386.160156 344.597656 387.097656 344.957031 388.015625 345.359375 C 388.9375 345.761719 389.835938 346.207031 390.714844 346.695312 C 391.589844 347.183594 392.445312 347.714844 393.269531 348.28125 C 394.097656 348.851562 394.898438 349.457031 395.667969 350.101562 C 396.4375 350.742188 397.175781 351.421875 397.882812 352.136719 C 398.589844 352.847656 399.261719 353.59375 399.898438 354.371094 C 400.53125 355.148438 401.128906 355.953125 401.691406 356.785156 C 402.25 357.617188 402.769531 358.476562 403.25 359.359375 C 403.726562 360.238281 404.164062 361.140625 404.558594 362.066406 C 404.949219 362.988281 405.300781 363.929688 405.605469 364.882812 C 405.910156 365.839844 406.167969 366.808594 406.382812 367.789062 C 406.59375 368.769531 406.761719 369.757812 406.878906 370.753906 C 407 371.75 407.074219 372.75 407.097656 373.753906 C 407.125 374.757812 407.101562 375.757812 407.03125 376.757812 C 407.027344 376.921875 406.988281 377.074219 406.917969 377.21875 C 406.851562 377.367188 406.753906 377.492188 406.632812 377.597656 C 406.511719 377.707031 406.375 377.785156 406.222656 377.835938 C 406.070312 377.886719 405.914062 377.902344 405.75 377.890625 C 405.597656 377.878906 405.449219 377.894531 405.300781 377.941406 C 405.152344 377.988281 405.023438 378.0625 404.902344 378.164062 C 404.785156 378.261719 404.691406 378.378906 404.621094 378.515625 C 404.550781 378.652344 404.507812 378.800781 404.492188 378.953125 C 404.390625 379.949219 404.238281 380.9375 404.039062 381.917969 C 403.839844 382.902344 403.59375 383.871094 403.300781 384.828125 C 403.003906 385.789062 402.664062 386.730469 402.28125 387.652344 C 401.894531 388.578125 401.464844 389.484375 400.992188 390.367188 C 400.519531 391.25 400.003906 392.109375 399.449219 392.941406 C 398.890625 393.773438 398.296875 394.578125 397.660156 395.355469 C 397.027344 396.128906 396.355469 396.875 395.648438 397.582031 C 394.941406 398.292969 394.203125 398.96875 393.429688 399.609375 C 392.65625 400.246094 391.855469 400.847656 391.023438 401.40625 C 390.195312 401.96875 389.339844 402.488281 388.457031 402.964844 C 387.574219 403.445312 386.671875 403.878906 385.75 404.269531 C 384.824219 404.660156 383.886719 405.003906 382.929688 405.304688 C 381.972656 405.601562 381.003906 405.855469 380.019531 406.058594 C 379.039062 406.265625 378.050781 406.421875 377.054688 406.53125 C 376.054688 406.640625 375.054688 406.703125 374.054688 406.714844 C 373.050781 406.726562 372.050781 406.691406 371.050781 406.605469 C 370.054688 406.476562 369.066406 406.296875 368.085938 406.074219 C 367.109375 405.851562 366.140625 405.582031 365.1875 405.265625 C 364.234375 404.953125 363.296875 404.59375 362.378906 404.1875 C 361.457031 403.785156 360.558594 403.339844 359.683594 402.851562 C 358.804688 402.363281 357.953125 401.835938 357.125 401.269531 C 356.296875 400.699219 355.496094 400.09375 354.726562 399.449219 C 353.957031 398.804688 353.21875 398.128906 352.511719 397.414062 C 351.804688 396.699219 351.132812 395.957031 350.5 395.179688 C 349.863281 394.402344 349.265625 393.597656 348.703125 392.765625 C 348.144531 391.929688 347.625 391.074219 347.148438 390.191406 C 346.667969 389.308594 346.230469 388.40625 345.839844 387.484375 C 345.445312 386.5625 345.09375 385.621094 344.789062 384.664062 C 344.484375 383.710938 344.226562 382.742188 344.015625 381.761719 C 343.800781 380.78125 343.632812 379.792969 343.515625 378.796875 C 343.394531 377.800781 343.320312 376.800781 343.296875 375.796875 C 343.269531 374.792969 343.292969 373.792969 343.363281 372.789062 C 343.367188 372.628906 343.40625 372.476562 343.476562 372.328125 C 343.542969 372.183594 343.640625 372.058594 343.761719 371.949219 C 343.882812 371.84375 344.019531 371.765625 344.171875 371.714844 C 344.324219 371.664062 344.484375 371.644531 344.644531 371.660156 Z M 406.671875 384.054688 C 407.191406 382.179688 407.558594 380.273438 407.765625 378.335938 L 407.761719 378.335938 L 407.761719 378.328125 L 407.765625 378.328125 L 407.789062 378.105469 L 407.78125 378.105469 C 411 349.097656 376.90625 328.941406 354.839844 347.984375 C 379.226562 323.324219 415.5625 350.578125 408.273438 382.992188 C 408.246094 383.171875 408.183594 383.339844 408.082031 383.492188 C 407.984375 383.644531 407.859375 383.773438 407.707031 383.875 C 407.554688 383.976562 407.386719 384.042969 407.207031 384.074219 C 407.027344 384.105469 406.847656 384.097656 406.671875 384.054688 Z M 342.632812 371.21875 L 342.628906 371.21875 L 342.609375 371.445312 L 342.613281 371.445312 L 342.613281 371.449219 L 342.605469 371.449219 C 339.164062 400.839844 373.953125 421.089844 395.996094 401.453125 C 371.480469 427.003906 334.917969 400.09375 342.039062 367.046875 C 342.070312 366.863281 342.136719 366.695312 342.234375 366.542969 C 342.335938 366.386719 342.464844 366.257812 342.621094 366.15625 C 342.773438 366.054688 342.941406 365.988281 343.125 365.957031 C 343.308594 365.929688 343.488281 365.933594 343.667969 365.980469 C 343.191406 367.699219 342.847656 369.445312 342.632812 371.21875 Z M 408.78125 384.902344 L 408.785156 384.90625 L 408.84375 384.652344 L 408.839844 384.652344 L 408.839844 384.644531 L 408.847656 384.648438 C 417.429688 353.246094 385.277344 322.375 357.75 340.988281 C 389.125 315.808594 421.609375 355.53125 408.710938 389.746094 C 408.660156 389.941406 408.570312 390.117188 408.441406 390.273438 C 408.3125 390.429688 408.160156 390.554688 407.976562 390.640625 C 407.796875 390.730469 407.601562 390.777344 407.402344 390.78125 C 407.199219 390.785156 407.003906 390.746094 406.820312 390.667969 C 407.609375 388.792969 408.261719 386.871094 408.78125 384.90625 Z M 341.527344 365.125 L 341.535156 365.128906 L 341.53125 365.132812 L 341.527344 365.132812 L 341.46875 365.382812 L 341.472656 365.386719 C 333.203125 396.425781 364.628906 427.015625 392.085938 409.09375 C 360.621094 433.136719 329.042969 393.554688 341.769531 359.75 C 341.820312 359.558594 341.90625 359.382812 342.03125 359.226562 C 342.15625 359.070312 342.308594 358.949219 342.488281 358.859375 C 342.667969 358.773438 342.859375 358.726562 343.058594 358.71875 C 343.257812 358.714844 343.449219 358.75 343.632812 358.828125 C 342.769531 360.875 342.066406 362.972656 341.527344 365.125 Z M 408.925781 392.019531 L 408.921875 392.015625 L 408.921875 392.011719 L 408.929688 392.011719 L 409.03125 391.738281 L 409.027344 391.734375 C 422.375 359.261719 396.816406 317.707031 363.128906 333.027344 C 401.824219 311.339844 426.402344 364.074219 407.777344 398.078125 C 407.707031 398.285156 407.59375 398.464844 407.4375 398.617188 C 407.285156 398.773438 407.105469 398.882812 406.898438 398.953125 C 406.691406 399.023438 406.480469 399.042969 406.261719 399.015625 C 406.046875 398.988281 405.847656 398.910156 405.667969 398.789062 C 406.917969 396.613281 408.003906 394.355469 408.925781 392.019531 Z M 341.558594 357.488281 L 341.550781 357.484375 L 341.449219 357.761719 L 341.453125 357.761719 L 341.449219 357.769531 L 341.445312 357.765625 C 327.710938 390.558594 353.96875 432.632812 387.863281 416.503906 C 348.664062 439.664062 323.882812 386.527344 342.4375 352.003906 C 342.511719 351.792969 342.625 351.613281 342.785156 351.460938 C 342.941406 351.304688 343.125 351.191406 343.332031 351.125 C 343.542969 351.054688 343.757812 351.035156 343.976562 351.066406 C 344.195312 351.097656 344.394531 351.171875 344.578125 351.296875 C 343.429688 353.292969 342.425781 355.355469 341.558594 357.488281 Z M 407.621094 400.6875 L 407.628906 400.691406 L 407.785156 400.398438 L 407.777344 400.394531 L 407.78125 400.386719 L 407.789062 400.390625 C 427.40625 366.40625 407.980469 311.675781 367.019531 326.082031 C 414.78125 304.265625 430.644531 372.21875 405.785156 406.757812 C 405.152344 407.734375 404.128906 407.898438 403.511719 407.207031 C 405.023438 405.121094 406.394531 402.949219 407.621094 400.6875 Z M 342.589844 349.382812 L 342.59375 349.386719 L 342.589844 349.394531 L 342.585938 349.390625 L 342.429688 349.683594 L 342.433594 349.6875 C 323.761719 382.898438 341.050781 435.570312 381.046875 424.570312 C 334.539062 441.980469 320.570312 376.285156 344.808594 342.710938 C 345.433594 341.734375 346.460938 341.566406 347.074219 342.257812 C 345.410156 344.527344 343.917969 346.902344 342.589844 349.382812 Z M 405.1875 409.703125 L 405.183594 409.695312 L 405.1875 409.6875 L 405.191406 409.695312 L 405.40625 409.390625 L 405.402344 409.382812 C 429.539062 376.195312 423.03125 313.054688 377.304688 317.4375 C 431.335938 306.429688 431.183594 384.75 401.746094 416.878906 C 400.925781 417.871094 399.816406 417.882812 399.289062 416.988281 C 401.425781 414.695312 403.390625 412.265625 405.1875 409.703125 Z M 345.402344 339.777344 L 345.398438 339.773438 L 345.183594 340.078125 L 345.191406 340.082031 L 345.183594 340.089844 L 345.179688 340.085938 C 319.988281 373.792969 328.179688 439.929688 375.640625 431.769531 C 319.804688 447.472656 317.824219 366.050781 348.34375 333.21875 C 349.171875 332.21875 350.277344 332.21875 350.808594 333.113281 C 348.863281 335.21875 347.0625 337.441406 345.402344 339.777344 Z M 349.464844 329.980469 L 349.46875 329.988281 L 349.460938 329.996094 L 349.457031 329.988281 C 349.367188 330.09375 349.277344 330.195312 349.183594 330.296875 L 349.1875 330.304688 C 319.550781 362.445312 313.074219 435.867188 363.394531 439.734375 C 304.0625 442.949219 318.980469 352.078125 354.273438 322.449219 C 355.304688 321.46875 356.472656 321.660156 356.875 322.769531 C 354.234375 325 351.765625 327.402344 349.464844 329.980469 Z M 394.734375 430.496094 L 394.730469 430.488281 L 394.738281 430.480469 L 394.742188 430.488281 C 394.851562 430.382812 394.964844 430.285156 395.082031 430.1875 L 395.078125 430.179688 C 430.636719 399.972656 451.429688 317.289062 398.382812 303.394531 C 415.890625 303.828125 429.445312 315.820312 433.128906 337.570312 C 438.808594 371.148438 418.933594 415.449219 388.425781 438.183594 C 387.179688 439.109375 385.984375 438.683594 385.746094 437.351562 C 388.902344 435.28125 391.898438 432.996094 394.734375 430.496094 Z M 355.984375 318.992188 L 355.980469 318.984375 C 355.871094 319.085938 355.757812 319.1875 355.640625 319.285156 L 355.644531 319.292969 L 355.632812 319.300781 L 355.632812 319.292969 C 319.097656 349.457031 298.25 436.804688 354.953125 446.671875 C 335.8125 447.800781 320.746094 435.636719 316.828125 412.496094 C 311.144531 378.921875 331.023438 334.621094 361.53125 311.886719 C 362.785156 310.957031 363.972656 311.394531 364.214844 312.726562 C 361.335938 314.632812 358.589844 316.722656 355.984375 318.992188 Z M 386.050781 441.800781 L 386.054688 441.8125 C 386.1875 441.710938 386.320312 441.621094 386.460938 441.53125 L 386.460938 441.519531 L 386.46875 441.511719 L 386.472656 441.523438 C 429.121094 415.035156 466.636719 317.847656 408.40625 297.03125 C 428.707031 299.195312 442.511719 315.707031 442.769531 342.679688 C 443.148438 381.816406 414.882812 428.539062 379.039062 448.871094 C 377.566406 449.699219 376.390625 448.992188 376.355469 447.4375 C 379.71875 445.777344 382.949219 443.898438 386.050781 441.800781 Z M 363.914062 308.25 L 363.914062 308.261719 L 363.902344 308.269531 L 363.902344 308.257812 C 363.769531 308.355469 363.632812 308.449219 363.496094 308.539062 L 363.496094 308.550781 C 321.648438 335.875 285.15625 426.511719 338.902344 451.890625 C 320.578125 448.253906 308.335938 432.207031 308.089844 406.847656 C 307.710938 367.710938 335.976562 320.988281 371.820312 300.660156 C 373.285156 299.832031 374.472656 300.53125 374.5 302.085938 C 370.816406 303.878906 367.289062 305.933594 363.914062 308.25 Z M 375.929688 452.570312 L 375.929688 452.554688 L 375.941406 452.550781 L 375.941406 452.5625 C 376.097656 452.476562 376.253906 452.394531 376.417969 452.316406 L 376.417969 452.304688 C 424.964844 428.945312 478.367188 331.992188 426.136719 293.988281 C 444.785156 301.410156 454.976562 321.828125 451.011719 350.660156 C 450.464844 353.597656 449.832031 356.515625 449.113281 359.417969 C 448.394531 362.316406 447.589844 365.195312 446.699219 368.046875 C 445.804688 370.898438 444.832031 373.722656 443.773438 376.519531 C 442.714844 379.3125 441.570312 382.074219 440.347656 384.800781 C 439.125 387.527344 437.820312 390.214844 436.4375 392.863281 C 435.054688 395.515625 433.59375 398.121094 432.054688 400.683594 C 430.515625 403.246094 428.898438 405.761719 427.210938 408.226562 C 425.523438 410.691406 423.761719 413.105469 421.929688 415.46875 C 420.097656 417.832031 418.195312 420.136719 416.226562 422.386719 C 414.253906 424.632812 412.21875 426.824219 410.121094 428.949219 C 408.019531 431.078125 405.859375 433.140625 403.636719 435.140625 C 401.410156 437.140625 399.132812 439.074219 396.792969 440.9375 C 394.453125 442.800781 392.0625 444.59375 389.617188 446.316406 C 387.171875 448.035156 384.679688 449.683594 382.136719 451.257812 C 379.59375 452.832031 377.003906 454.328125 374.371094 455.746094 C 371.738281 457.167969 369.066406 458.507812 366.355469 459.765625 C 364.6875 460.445312 363.539062 459.441406 363.785156 457.664062 C 367.96875 456.285156 372.015625 454.585938 375.929688 452.570312 Z M 374.917969 296.976562 L 374.917969 296.964844 C 374.761719 297.050781 374.601562 297.132812 374.441406 297.210938 L 374.441406 297.222656 L 374.429688 297.230469 L 374.429688 297.21875 C 334.683594 317.800781 302.796875 369.265625 303.210938 412.164062 C 303.429688 434.90625 312.742188 450.582031 327.3125 457.316406 C 306.34375 451.214844 294.585938 429.988281 298.808594 399.320312 C 299.351562 396.382812 299.984375 393.460938 300.707031 390.5625 C 301.425781 387.660156 302.230469 384.785156 303.121094 381.933594 C 304.011719 379.078125 304.988281 376.253906 306.046875 373.460938 C 307.105469 370.667969 308.246094 367.90625 309.46875 365.179688 C 310.695312 362.453125 311.996094 359.765625 313.382812 357.113281 C 314.765625 354.464844 316.226562 351.859375 317.765625 349.296875 C 319.304688 346.734375 320.917969 344.21875 322.609375 341.753906 C 324.296875 339.285156 326.058594 336.871094 327.890625 334.511719 C 329.722656 332.148438 331.625 329.84375 333.59375 327.59375 C 335.5625 325.34375 337.597656 323.15625 339.699219 321.027344 C 341.800781 318.902344 343.960938 316.835938 346.183594 314.835938 C 348.40625 312.839844 350.6875 310.90625 353.027344 309.042969 C 355.363281 307.179688 357.757812 305.386719 360.203125 303.664062 C 362.644531 301.941406 365.140625 300.296875 367.683594 298.722656 C 370.226562 297.148438 372.816406 295.652344 375.445312 294.230469 C 378.078125 292.8125 380.75 291.472656 383.464844 290.210938 C 385.136719 289.535156 386.28125 290.546875 386.035156 292.324219 C 382.214844 293.609375 378.511719 295.160156 374.917969 296.976562 Z M 400.957031 282.933594 L 400.957031 282.964844 C 396.316406 283.785156 391.78125 284.984375 387.34375 286.570312 L 387.34375 286.585938 L 387.328125 286.589844 L 387.332031 286.574219 C 387.152344 286.644531 386.972656 286.710938 386.792969 286.769531 L 386.789062 286.78125 C 330.835938 305.316406 259.957031 405.476562 308.171875 457.582031 C 289.816406 445.808594 282.503906 420.796875 291.476562 388.777344 C 305.324219 339.359375 352.703125 291.636719 398.605469 280.117188 C 400.449219 279.65625 401.511719 280.96875 400.960938 282.933594 Z M 332.785156 474.65625 L 332.796875 474.621094 C 337.8125 474.523438 342.78125 473.976562 347.695312 472.972656 L 347.703125 472.957031 L 347.714844 472.957031 L 347.710938 472.972656 C 347.910156 472.921875 348.109375 472.882812 348.3125 472.847656 L 348.316406 472.832031 C 412.230469 461.027344 500.886719 359.507812 459.378906 293.050781 C 476.703125 309.714844 480.214844 339.421875 465.457031 374.15625 C 442.671875 427.777344 384.941406 473.445312 334.789062 478.277344 C 332.773438 478.472656 331.878906 476.789062 332.785156 474.65625 Z M 416.917969 275.15625 L 416.910156 275.203125 C 412.320312 275.324219 407.773438 275.824219 403.269531 276.699219 L 403.277344 276.683594 C 403.078125 276.730469 402.878906 276.773438 402.675781 276.804688 L 402.671875 276.824219 L 402.65625 276.824219 L 402.660156 276.808594 C 338.382812 287.449219 244.976562 395.578125 293.746094 459.859375 C 273.445312 443.949219 268.546875 412.609375 284.25 375.65625 C 307.035156 322.039062 364.765625 276.371094 414.914062 271.539062 C 416.933594 271.34375 417.828125 273.023438 416.917969 275.15625 Z M 314.722656 480.617188 L 314.742188 480.566406 C 319.578125 481.253906 324.4375 481.503906 329.320312 481.320312 L 329.3125 481.335938 C 329.527344 481.316406 329.742188 481.308594 329.960938 481.304688 L 329.96875 481.289062 L 329.984375 481.285156 L 329.980469 481.304688 C 401.8125 480.679688 515.460938 371.46875 474.914062 293.054688 C 493.59375 314.765625 493.519531 351.222656 470.863281 390.355469 C 437.992188 447.132812 369.722656 488.609375 316.222656 485.085938 C 314.074219 484.945312 313.414062 482.878906 314.722656 480.617188 Z M 436.359375 269.246094 L 436.34375 269.28125 C 431.058594 268.492188 425.75 268.222656 420.410156 268.476562 L 420.402344 268.492188 L 420.386719 268.492188 L 420.394531 268.476562 C 420.179688 268.496094 419.960938 268.507812 419.746094 268.507812 L 419.738281 268.523438 C 348.246094 270.105469 240.476562 373.492188 273.089844 452.679688 C 257.660156 430.648438 258.917969 396.292969 280.214844 359.507812 C 313.085938 302.726562 381.355469 261.253906 434.855469 264.773438 C 437.007812 264.917969 437.667969 266.984375 436.359375 269.246094 Z M 293.3125 483.839844 L 293.332031 483.800781 C 298.734375 485.640625 304.269531 486.902344 309.9375 487.578125 L 309.949219 487.558594 L 309.96875 487.558594 L 309.957031 487.578125 C 310.1875 487.597656 310.417969 487.621094 310.644531 487.660156 L 310.65625 487.640625 C 388.316406 499.488281 517.902344 395.628906 495.421875 304.914062 C 533.042969 402.824219 376.960938 513.738281 294.144531 489.183594 C 291.910156 488.636719 291.558594 486.167969 293.3125 483.839844 Z M 456.332031 265.71875 L 456.304688 265.773438 C 451.351562 264.128906 446.289062 262.96875 441.113281 262.300781 L 441.121094 262.28125 C 440.890625 262.265625 440.664062 262.238281 440.433594 262.203125 L 440.421875 262.222656 L 440.40625 262.21875 L 440.417969 262.199219 C 361.902344 248.976562 226.515625 358.871094 256.765625 449.886719 C 240.753906 421.882812 246.90625 380.507812 277.230469 340.148438 C 321.230469 281.59375 399.871094 246.769531 455.5 260.375 C 457.734375 260.921875 458.085938 263.390625 456.332031 265.71875 Z M 479.367188 265.910156 L 479.335938 265.949219 C 474 262.902344 468.394531 260.480469 462.519531 258.679688 L 462.503906 258.699219 L 462.484375 258.691406 L 462.5 258.675781 C 462.257812 258.613281 462.023438 258.542969 461.789062 258.460938 L 461.773438 258.480469 C 379.175781 230.375 226.582031 330.738281 237.191406 432.734375 C 213.011719 320.367188 390.996094 215.808594 479.378906 259.695312 C 481.640625 260.714844 481.59375 263.578125 479.367188 265.910156 Z M 247.566406 479.902344 L 247.601562 479.859375 C 252.65625 484.246094 258.144531 488.007812 264.0625 491.136719 L 264.082031 491.117188 L 264.101562 491.125 L 264.082031 491.144531 C 264.324219 491.257812 264.5625 491.378906 264.792969 491.515625 L 264.8125 491.496094 C 351.527344 539.335938 525.519531 447.101562 529.816406 334.011719 C 538.203125 460.058594 337.578125 554.738281 246.515625 486.953125 C 244.3125 485.390625 244.835938 482.148438 247.566406 479.902344 Z M 502.105469 269.316406 L 502.054688 269.375 C 497.398438 265.402344 492.382812 261.953125 487 259.035156 L 487.019531 259.015625 C 486.777344 258.902344 486.539062 258.78125 486.308594 258.644531 L 486.289062 258.664062 L 486.269531 258.65625 L 486.289062 258.636719 C 398.171875 208.753906 217.058594 306.800781 220.679688 422.800781 C 202.921875 293.792969 409.566406 192.886719 503.15625 262.261719 C 505.359375 263.828125 504.835938 267.070312 502.105469 269.316406 Z M 224.242188 471.949219 L 224.304688 471.894531 C 228.496094 477.199219 233.191406 482.011719 238.398438 486.332031 L 238.375 486.351562 C 238.613281 486.523438 238.839844 486.703125 239.0625 486.898438 L 239.082031 486.882812 L 239.101562 486.894531 L 239.078125 486.914062 C 328.324219 561.421875 531.9375 475.59375 545.515625 348.246094 C 545.277344 491.625 313.554688 578.425781 221.960938 479.765625 C 219.90625 477.59375 221 474.007812 224.242188 471.949219 Z M 526.777344 278.597656 L 526.730469 278.640625 C 522.195312 272.796875 517.054688 267.542969 511.3125 262.878906 L 511.289062 262.898438 L 511.273438 262.886719 L 511.292969 262.867188 C 511.058594 262.695312 510.832031 262.511719 510.609375 262.316406 L 510.585938 262.335938 C 423.023438 190.546875 227.210938 270.484375 205.902344 393.527344 C 215.859375 254.390625 439.746094 174.644531 529.054688 270.777344 C 531.109375 272.949219 530.019531 276.539062 526.777344 278.597656 Z M 549.960938 291.816406 L 549.886719 291.867188 C 546.394531 285.136719 542.261719 278.828125 537.480469 272.941406 L 537.507812 272.925781 C 537.285156 272.6875 537.078125 272.4375 536.878906 272.179688 L 536.851562 272.195312 L 536.835938 272.175781 L 536.863281 272.160156 C 450.964844 168.960938 225.339844 236.628906 191.777344 374.542969 C 214.375 216.242188 468.921875 151.632812 553.660156 283.347656 C 553.84375 283.742188 553.984375 284.15625 554.082031 284.582031 C 554.179688 285.007812 554.230469 285.4375 554.234375 285.875 C 554.238281 286.3125 554.199219 286.742188 554.113281 287.171875 C 554.027344 287.601562 553.894531 288.015625 553.71875 288.414062 C 553.546875 288.816406 553.332031 289.191406 553.074219 289.546875 C 552.820312 289.902344 552.53125 290.226562 552.207031 290.519531 C 551.882812 290.8125 551.53125 291.066406 551.152344 291.285156 C 550.773438 291.503906 550.375 291.679688 549.960938 291.816406 Z M 573.171875 313.136719 C 570.421875 304.148438 566.761719 295.546875 562.195312 287.328125 L 562.160156 287.34375 L 562.148438 287.316406 L 562.179688 287.304688 C 561.988281 286.992188 561.808594 286.671875 561.644531 286.34375 L 561.613281 286.359375 C 487.363281 155.707031 248.660156 192.210938 186.136719 332.671875 C 243.203125 167.382812 511.113281 141.378906 578.375 304.238281 C 578.511719 304.699219 578.597656 305.171875 578.636719 305.652344 C 578.675781 306.132812 578.667969 306.613281 578.609375 307.09375 C 578.550781 307.570312 578.445312 308.039062 578.289062 308.496094 C 578.136719 308.953125 577.9375 309.390625 577.691406 309.804688 C 577.449219 310.222656 577.164062 310.609375 576.84375 310.96875 C 576.519531 311.328125 576.164062 311.652344 575.777344 311.9375 C 575.386719 312.222656 574.972656 312.46875 574.535156 312.671875 C 574.097656 312.871094 573.640625 313.027344 573.171875 313.136719 Z M 164.105469 440.707031 L 164.140625 440.695312 L 164.152344 440.726562 L 164.117188 440.738281 C 164.265625 441.128906 164.402344 441.523438 164.515625 441.925781 L 164.550781 441.914062 C 221.792969 604.652344 478.316406 604.105469 566.789062 456.78125 C 479.71875 634.15625 192.984375 615.339844 149.917969 418.605469 C 149.835938 418.074219 149.8125 417.542969 149.835938 417.007812 C 149.863281 416.46875 149.945312 415.941406 150.074219 415.425781 C 150.207031 414.90625 150.390625 414.402344 150.625 413.921875 C 150.855469 413.4375 151.132812 412.984375 151.457031 412.554688 C 151.78125 412.128906 152.144531 411.738281 152.546875 411.382812 C 152.949219 411.027344 153.382812 410.714844 153.847656 410.449219 C 154.3125 410.179688 154.800781 409.960938 155.308594 409.789062 C 155.816406 409.621094 156.335938 409.5 156.867188 409.433594 C 158.253906 420.09375 160.664062 430.519531 164.105469 440.707031 Z M 593.316406 338.875 C 591.949219 329.140625 589.722656 319.605469 586.636719 310.269531 L 586.671875 310.257812 C 586.519531 309.867188 586.386719 309.476562 586.269531 309.074219 L 586.234375 309.082031 L 586.222656 309.054688 L 586.257812 309.042969 C 528.421875 141.609375 263.148438 146.195312 179.160156 300.507812 C 259.691406 115.011719 555.738281 128.273438 600.222656 329.722656 C 600.304688 330.25 600.332031 330.78125 600.304688 331.3125 C 600.277344 331.847656 600.199219 332.371094 600.066406 332.886719 C 599.9375 333.40625 599.753906 333.90625 599.523438 334.386719 C 599.292969 334.867188 599.019531 335.320312 598.695312 335.746094 C 598.375 336.175781 598.015625 336.5625 597.613281 336.917969 C 597.214844 337.273438 596.785156 337.585938 596.324219 337.851562 C 595.859375 338.121094 595.378906 338.34375 594.871094 338.515625 C 594.367188 338.6875 593.847656 338.808594 593.316406 338.875 Z M 610.335938 374.886719 C 610.65625 362.546875 609.859375 350.277344 607.941406 338.085938 L 607.902344 338.089844 L 607.898438 338.054688 L 607.9375 338.046875 C 607.839844 337.574219 607.765625 337.105469 607.710938 336.628906 L 607.671875 336.632812 C 574.820312 142.753906 306.734375 95.121094 187.5 247.515625 C 311.886719 59.242188 607.515625 138.023438 619.167969 365.726562 C 619.183594 366.316406 619.144531 366.90625 619.042969 367.488281 C 618.945312 368.074219 618.789062 368.640625 618.574219 369.195312 C 618.363281 369.75 618.09375 370.273438 617.777344 370.773438 C 617.457031 371.273438 617.09375 371.738281 616.679688 372.164062 C 616.269531 372.589844 615.820312 372.972656 615.332031 373.308594 C 614.84375 373.648438 614.328125 373.933594 613.785156 374.164062 C 613.238281 374.398438 612.675781 374.578125 612.09375 374.699219 C 611.515625 374.820312 610.925781 374.882812 610.335938 374.886719 Z M 610.335938 374.886719 "/></g></svg>